<?xml version="1.0" standalone="no"?>
<!DOCTYPE svg PUBLIC "-//W3C//DTD SVG 20010904//EN"
 "http://www.w3.org/TR/2001/REC-SVG-20010904/DTD/svg10.dtd">
<svg version="1.0" xmlns="http://www.w3.org/2000/svg" viewBox="0 0 600.000000 600.000000"
 preserveAspectRatio="xMidYMid meet">

<g transform="translate(0.000000,600.000000) scale(0.100000,-0.100000)" stroke="none">
<path d="M5086 5958 c-35 -44 -137 -175 -255 -328 -122 -159 -399 -517 -631
-815 -38 -49 -103 -133 -143 -185 -40 -52 -143 -184 -228 -294 -85 -109 -170
-219 -190 -245 -19 -25 -91 -118 -159 -206 -68 -88 -178 -230 -245 -316 -138
-180 -585 -757 -626 -809 -77 -99 -473 -610 -534 -690 -38 -51 -101 -131 -138
-178 -38 -48 -72 -93 -77 -102 -8 -13 -10 -13 -22 1 -7 9 -68 88 -134 175
-108 141 -600 784 -766 1001 -58 76 -81 95 -90 75 -2 -4 -124 -102 -273 -217
-148 -115 -275 -214 -281 -220 -6 -5 -75 -59 -153 -118 -77 -60 -141 -115
-141 -122 0 -12 97 -140 526 -690 47 -60 142 -184 212 -275 70 -90 153 -198
185 -240 33 -41 92 -118 132 -170 41 -52 128 -165 194 -250 171 -219 226 -291
316 -409 119 -154 256 -326 260 -326 3 0 123 150 224 280 21 28 83 106 138
175 54 69 107 137 118 151 42 56 384 490 412 523 9 11 31 40 50 64 19 25 49
63 67 86 17 23 59 75 91 116 32 41 77 98 100 126 22 28 67 86 100 129 33 43
65 83 70 89 6 6 73 92 150 190 153 196 266 339 480 611 182 231 494 629 585
745 85 109 294 375 377 480 141 179 314 399 428 545 60 77 161 205 224 285 63
80 134 170 158 200 24 30 109 138 189 240 172 218 214 274 214 287 0 5 -30 32
-67 60 -38 28 -124 94 -193 147 -69 53 -201 154 -295 226 -93 71 -201 154
-240 184 -38 31 -73 55 -77 56 -4 0 -23 -19 -42 -42z"/>
</g>
</svg>
